<?xml version="1.0" encoding="UTF-8"?> <svg xmlns="http://www.w3.org/2000/svg" width="1011" height="112" viewBox="0 0 1011 112" fill="none"> <g clip-path="url(#clip0)"> <path d="M132.058 32.8001C137.473 40.1108 140.168 50.4189 140.168 63.7974V109.221H114.502V64.3826C114.502 57.6889 113.21 52.7746 110.624 49.6391C109.345 48.0916 107.707 46.8586 105.842 46.0412C103.977 45.2237 101.939 44.8449 99.8935 44.9359C96.851 44.951 93.9 45.9456 91.5062 47.7627C88.7478 49.8181 86.5871 52.53 85.2346 55.6339C83.635 59.3017 82.8453 63.2531 82.9172 67.2336V109.221H57.2512V64.3826C57.2512 57.6324 55.9665 52.6852 53.4226 49.5904C52.129 48.0508 50.4792 46.8273 48.6065 46.0188C46.7338 45.2102 44.6907 44.8392 42.6424 44.9359C39.6067 44.9471 36.6625 45.9424 34.2801 47.7627C31.5299 49.8402 29.3787 52.5677 28.0336 55.6826C26.4026 59.3258 25.5954 63.2637 25.666 67.2336V109.221H0V24.5878H24.3311L24.6585 34.7984C27.145 30.8225 30.7306 27.5983 35.0106 25.4894C39.7436 23.0783 45.0265 21.855 50.3749 21.9315C56.4194 21.7329 62.3939 23.2309 67.578 26.2449C72.4106 29.3516 76.1665 33.7921 78.3581 38.9899C81.5944 33.734 86.0861 29.3051 91.4556 26.0743C96.3781 23.3051 101.982 21.8737 107.677 21.9315C118.541 21.9315 126.668 25.5544 132.058 32.8001Z" fill="black"></path> <path d="M245.478 73.1073H180.973C181.601 77.9781 183.992 82.4766 187.723 85.8036C191.316 88.7693 195.923 90.3334 200.644 90.1901C208.754 90.1901 213.943 87.2898 216.261 81.5145H244.118C242.675 86.9471 239.999 92 236.285 96.3064C232.238 101.056 227.166 104.891 221.424 107.541C214.447 110.638 206.812 112.094 199.142 111.789C191.472 111.484 183.986 109.427 177.296 105.786C170.389 101.868 164.713 96.2078 160.874 89.41C156.919 82.5001 154.881 74.7178 154.954 66.8202C154.88 58.913 156.901 51.1188 160.823 44.1812C164.663 37.3972 170.34 31.7529 177.245 27.8539C184.504 23.8047 192.771 21.7567 201.148 21.9323C209.408 21.7671 217.552 23.8257 224.673 27.8783C231.35 31.7573 236.796 37.3383 240.415 44.0106C244.141 50.8771 246.054 58.5288 245.982 66.2837C245.951 68.5657 245.784 70.8443 245.478 73.1073ZM219.383 56.0491C219.111 53.4935 218.088 51.0669 216.437 49.055C214.699 46.9363 212.45 45.2627 209.888 44.1812C206.616 42.7978 203.041 42.2185 199.481 42.4948C195.922 42.7712 192.489 43.8946 189.487 45.7652C185.801 48.2423 183.127 51.8891 181.93 56.0732L219.383 56.0491Z" fill="black"></path> <path d="M284.924 24.5887V34.7993C287.687 30.741 291.557 27.5021 296.107 25.4416C301.157 23.0652 306.712 21.8636 312.328 21.9325C323.981 21.9325 332.721 25.5635 338.548 32.8254C344.391 40.1361 347.288 50.4442 347.288 63.8226V109.222H321.32V64.3832C321.32 57.6329 319.884 52.6862 317.013 49.5913C315.485 48.0172 313.621 46.7851 311.55 45.9811C309.479 45.1771 307.251 44.8207 305.023 44.9368C301.586 44.8826 298.208 45.8019 295.303 47.5813C292.399 49.3608 290.095 51.923 288.677 54.9525C286.885 58.7742 286.023 62.9429 286.158 67.1373V109.222H260.089V24.5887H284.924Z" fill="black"></path> <path d="M382.397 102.52C376.57 98.0689 373.657 89.3043 373.657 76.2261V46.0087H356.856V24.5883H373.657V0.170583L399.676 0V24.5883H423.326V46.0087H399.676V77.3718C399.4 80.4227 400.367 83.4568 402.371 85.8278C403.314 86.7238 404.439 87.4222 405.674 87.8791C406.909 88.3366 408.228 88.5422 409.549 88.4839H423.326V109.222H403.983C396.202 109.475 388.573 107.106 382.397 102.52Z" fill="black"></path> <path d="M453.171 105.932C446.218 102.042 440.496 96.3875 436.623 89.5802C432.636 82.6541 430.579 74.8443 430.653 66.917C430.579 59.0036 432.618 51.2055 436.573 44.2781C440.447 37.4774 446.169 31.8314 453.121 27.9509C460.503 23.9865 468.807 21.9062 477.25 21.9062C485.693 21.9062 493.998 23.9865 501.38 27.9509C508.357 31.8403 514.118 37.4815 518.054 44.2781C522.066 51.1865 524.134 58.993 524.049 66.917C524.14 74.8645 522.073 82.6967 518.054 89.6289C514.118 96.4189 508.356 102.052 501.38 105.932C493.987 109.997 485.602 112.067 477.099 111.926C468.71 112.055 460.441 109.983 453.171 105.932ZM488.207 85.9491C491.384 84.0989 493.958 81.4221 495.637 78.2239C497.471 74.7234 498.388 70.8409 498.307 66.917C498.388 62.9852 497.471 59.0943 495.637 55.5853C493.958 52.3939 491.382 49.7251 488.207 47.8848C484.898 46.0646 481.157 45.1076 477.351 45.1076C473.545 45.1076 469.804 46.0646 466.496 47.8848C463.279 49.7145 460.661 52.3831 458.939 55.5853C457.17 59.1117 456.306 62.9987 456.42 66.917C456.304 70.8275 457.168 74.7071 458.939 78.2239C460.66 81.4333 463.278 84.1095 466.496 85.9491C469.804 87.7691 473.545 88.7262 477.351 88.7262C481.157 88.7262 484.898 87.7691 488.207 85.9491Z" fill="black"></path> <path d="M563.996 24.5898V36.555C565.883 32.8442 568.837 29.7416 572.505 27.6225C576.178 25.5033 580.402 24.4584 584.676 24.6142H594.747V46.0346H586.108C583.221 45.8855 580.334 46.3741 577.667 47.4633C574.999 48.5525 572.623 50.2138 570.719 52.3218C567.006 56.5134 565.164 62.4998 565.181 70.2815V109.272H539.009V24.5898H563.996Z" fill="black"></path> <path d="M619.13 105.956C612.912 101.836 607.947 96.1813 604.745 89.58C601.229 82.514 599.449 74.7585 599.533 66.9168C599.454 59.1043 601.252 51.381 604.774 44.3511C608.026 37.7755 612.991 32.132 619.18 27.9751C625.224 23.9367 632.413 21.8239 639.76 21.9316C645.691 21.8146 651.566 23.0239 656.936 25.4651C661.687 27.6375 665.664 31.1227 668.371 35.4808V24.5878H693.028V109.221H668.298V98.5232C665.608 102.867 661.648 106.336 656.913 108.49C651.56 110.961 645.685 112.196 639.76 112.097C632.396 112.143 625.196 109.999 619.13 105.956ZM656.913 85.949C660.12 84.0226 662.726 81.2948 664.467 78.0536C666.349 74.6275 667.315 70.7971 667.265 66.9168C667.253 63.1189 666.27 59.3832 664.389 56.0484C662.642 52.7955 660.036 50.0469 656.834 48.0795C653.672 46.1388 649.999 45.1156 646.258 45.1309C642.551 45.0954 638.9 46.012 635.676 47.7871C632.452 49.5845 629.829 52.2406 628.122 55.439C626.195 59.0158 625.235 63.0058 625.325 67.0389C625.201 71.1706 626.173 75.2648 628.144 78.9305C629.874 82.0654 632.497 84.6537 635.705 86.3875C638.906 88.0563 642.495 88.8957 646.129 88.8246C649.898 88.8509 653.599 87.8547 656.812 85.949H656.913Z" fill="black"></path> <path d="M845.113 32.8003C850.505 40.111 853.224 50.4191 853.224 63.7974V109.221H827.533V64.3826C827.533 57.6889 826.241 52.7747 823.652 49.6393C822.377 48.0887 820.743 46.8535 818.878 46.0358C817.008 45.2181 814.969 44.8411 812.924 44.936C809.88 44.9512 806.931 45.9457 804.539 47.7628C801.781 49.8117 799.624 52.5261 798.293 55.634C796.681 59.2984 795.889 63.252 795.973 67.2336V109.221H770.283V64.3826C770.283 57.6324 769.025 52.6854 766.452 49.5905C765.155 48.0426 763.498 46.8139 761.616 46.0049C759.735 45.1959 757.679 44.8296 755.623 44.936C752.596 44.9433 749.658 45.9393 747.288 47.7628C744.53 49.8388 742.368 52.5662 741.014 55.6828C739.402 59.3314 738.605 63.2671 738.672 67.2336V109.221H712.981V24.5879H737.313L737.639 34.7985C740.155 30.8183 743.766 27.5948 748.069 25.4895C752.809 23.0754 758.1 21.8521 763.458 21.9317C769.491 21.7322 775.461 23.2304 780.634 26.245C785.453 29.3346 789.205 33.7475 791.413 38.9169C794.642 33.6621 799.124 29.233 804.488 26.0013C809.42 23.2576 815.019 21.8517 820.709 21.9317C831.555 21.9317 839.693 25.5545 845.113 32.8003Z" fill="black"></path> <path d="M887.583 105.956C881.366 101.836 876.4 96.1813 873.199 89.58C869.683 82.5139 867.897 74.7585 867.987 66.9168C867.908 59.1043 869.7 51.381 873.221 44.3511C876.479 37.7755 881.439 32.132 887.628 27.9751C893.644 23.9561 900.799 21.8442 908.107 21.9316C914.038 21.8146 919.918 23.0239 925.288 25.4651C930.034 27.6375 934.016 31.1227 936.723 35.4808V24.5878H961.381V109.221H936.645V98.5232C933.954 102.873 929.983 106.344 925.237 108.49C919.946 110.938 914.144 112.172 908.286 112.097C900.895 112.158 893.666 110.013 887.583 105.956ZM925.237 85.949C928.444 84.0276 931.056 81.2987 932.792 78.0535C934.673 74.6275 935.639 70.7971 935.589 66.9168C935.617 63.1295 934.673 59.3943 932.842 56.0483C931.096 52.7922 928.489 50.0425 925.288 48.0795C922.137 46.1357 918.469 45.112 914.734 45.1309C911.027 45.0954 907.376 46.012 904.152 47.7871C900.928 49.5845 898.305 52.2406 896.598 55.439C894.671 59.0158 893.711 63.0058 893.801 67.0389C893.717 71.1336 894.705 75.1835 896.671 78.809C898.401 81.9433 901.024 84.5316 904.231 86.2659C907.433 87.9342 911.022 88.7742 914.656 88.7025C918.379 88.7591 922.047 87.8054 925.237 85.949Z" fill="black"></path> <path d="M994.477 109.222C1003.6 109.222 1011 102.065 1011 93.2358C1011 84.4068 1003.6 77.25 994.477 77.25C985.355 77.25 977.958 84.4068 977.958 93.2358C977.958 102.065 985.355 109.222 994.477 109.222Z" fill="black"></path> </g> <defs> <clipPath id="clip0"> <rect width="1011" height="112" fill="white"></rect> </clipPath> </defs> </svg> 